<svg width="23" height="20" viewBox="0 0 23 20" fill="none" xmlns="http://www.w3.org/2000/svg">
<path d="M22.5873 2.93627C22.4886 2.83763 22.4886 2.83763 22.39 2.739C22.5873 2.34446 22.6859 1.94992 22.7845 1.55539C22.8832 1.25948 22.6859 0.864947 22.39 0.667679C22.0941 0.47041 21.6995 0.47041 21.4036 0.667679C20.8118 1.06222 20.1214 1.35812 19.431 1.45675C17.7542 -0.121396 15.2883 -0.417299 13.217 0.569044C11.047 1.65402 9.96206 4.11988 10.5539 6.4871C10.6525 6.98027 11.1457 7.27618 11.6388 7.17754C12.132 7.07891 12.4279 6.58574 12.3293 6.09257C11.9347 4.51442 12.6252 2.93627 14.1047 2.14719C15.5842 1.35812 17.4583 1.75266 18.5432 3.0349C18.7405 3.23217 19.0364 3.3308 19.3323 3.23217H19.5296C19.2337 3.62671 19.2337 4.11988 19.5296 4.51442C19.6282 4.61305 19.7269 4.61305 19.8255 4.71168C19.6282 4.90895 19.431 5.20486 19.5296 5.50076C19.8255 9.24886 18.2473 12.997 15.2883 15.3642C12.2307 18.0273 7.98938 18.7178 4.24128 17.3369C5.72079 17.041 7.10167 16.4492 8.18665 15.4628C8.38392 15.1669 8.48255 14.871 8.28528 14.4765C8.08801 14.1806 7.79211 13.9833 7.49621 13.9833C6.50986 13.9833 5.52352 13.4901 4.83308 12.7997C5.12898 12.7011 5.42489 12.6024 5.72079 12.5038C6.01669 12.3065 6.21396 12.0106 6.21396 11.6161C6.21396 11.2215 5.91806 10.9256 5.52352 10.9256C4.33991 10.6297 3.35357 9.84067 2.86039 8.75569C3.05766 8.75569 3.25493 8.75569 3.55084 8.85433C3.94537 8.85433 4.24127 8.65706 4.43854 8.36115C4.53718 7.96662 4.43854 7.57208 4.14264 7.37481C2.66313 6.09256 2.36722 4.61305 2.56449 3.62671C4.24128 5.40212 6.3126 6.58574 8.67982 7.07891C9.17299 7.17754 9.66616 6.88164 9.7648 6.38847C9.86343 5.8953 9.56753 5.40212 9.07436 5.30349C6.70713 4.71168 4.63581 3.42944 3.1563 1.45675C2.95903 1.25948 2.76176 1.16085 2.46586 1.16085C2.16995 1.16085 1.97269 1.25948 1.77542 1.45675C0.591807 2.93627 0.493171 5.10622 1.47951 6.68437H1.38088C1.08498 6.783 0.986343 7.07891 0.887708 7.37481C0.887708 8.85433 1.47951 10.3338 2.56449 11.3202C2.36722 11.5175 2.26859 11.912 2.36722 12.2079C2.86039 13.5888 3.84674 14.6737 5.12898 15.3642C3.7481 15.8574 2.26859 16.1533 0.887708 16.1533C0.394537 16.1533 0 16.5478 0 17.041C0 17.3369 0.197268 17.6328 0.394537 17.83C2.66313 19.2109 5.22762 20 7.79211 20C10.8498 20 13.8088 18.8164 16.176 16.8437C19.431 14.1806 21.305 10.2352 21.1077 5.99393C21.7982 5.50076 22.2914 4.81032 22.4886 4.02124C22.8832 3.42944 22.7845 3.13354 22.5873 2.93627Z" fill="white"/>
</svg>
